<?xml version="1.0" standalone="no"?>
<!DOCTYPE svg PUBLIC "-//W3C//DTD SVG 20010904//EN"
 "http://www.w3.org/TR/2001/REC-SVG-20010904/DTD/svg10.dtd">
<svg version="1.0" xmlns="http://www.w3.org/2000/svg"
 width="316.000000pt" height="316.000000pt" viewBox="0 0 316.000000 316.000000"
 preserveAspectRatio="xMidYMid meet">
<metadata>
Created by potrace 1.14, written by Peter Selinger 2001-2017
</metadata>
<g transform="translate(0.000000,316.000000) scale(0.100000,-0.100000)"
fill="#000000" stroke="none">
<path d="M1373 3140 c-35 -21 -101 -106 -205 -265 -117 -180 -145 -226 -216
-355 -59 -108 -176 -306 -226 -385 -79 -122 -86 -133 -86 -146 0 -16 101 -166
141 -209 18 -19 91 -100 162 -180 72 -80 137 -148 146 -151 32 -13 69 -57 145
-174 95 -146 145 -200 214 -231 76 -34 115 -32 145 8 72 97 66 117 -86 271
-67 67 -140 146 -163 175 -23 29 -91 106 -151 170 -175 188 -241 269 -296 364
-33 58 -34 68 -1 99 24 22 83 108 178 261 22 35 61 92 86 128 26 36 52 85 59
109 14 50 26 67 131 201 41 52 84 109 96 125 47 69 69 166 42 193 -18 18 -79
14 -115 -8z"/>
<path d="M1573 2108 c-32 -36 -43 -63 -43 -109 0 -41 4 -47 130 -173 71 -72
139 -144 151 -161 20 -26 89 -103 227 -254 18 -20 61 -70 95 -111 34 -41 64
-77 68 -80 4 -3 28 -39 53 -80 l45 -75 -34 -40 c-41 -48 -104 -141 -170 -250
-27 -44 -70 -108 -97 -141 -26 -34 -48 -69 -48 -78 0 -34 -33 -93 -103 -184
-151 -196 -175 -235 -184 -299 -7 -54 7 -73 58 -73 59 0 83 14 131 77 103 134
266 389 365 570 42 77 174 304 193 333 84 123 111 174 106 194 -3 12 -27 53
-54 91 -71 100 -353 415 -406 452 -31 22 -68 67 -122 150 -42 65 -95 140 -117
166 -73 88 -197 126 -244 75z"/>
</g>
</svg>
